<?xml version="1.0" encoding="UTF-8" standalone="yes"?><svg xmlns="http://www.w3.org/2000/svg" xmlns:xlink="http://www.w3.org/1999/xlink" version="1.2" baseProfile="tiny" x="0" y="0" width="256" height="256" viewBox="0 0 256 256"><defs><linearGradient id="wps{4ccf067c-abbe-48da-996d-fe829f027622}_solid@Accent1_0.00@Accent1_0.00" x1="0" y1="0.5" x2="1" y2="0.5" spreadMethod="pad" gradientUnits="userSpaceOnUse"><stop offset="0" stop-color="#4874cb" stop-opacity="1"/><stop offset="1" stop-color="#4874cb" stop-opacity="1"/></linearGradient></defs><defs><clipPath id="clip1" clipPathUnits="userSpaceOnUse"><path d="M 318.625 141 L 347.625 141 L 347.625 175 L 318.625 175 L 318.625 141 M 318.625 141 Z"/></clipPath></defs><g transform="matrix(4.33153,0,0,4.33153,-170.875,-1730.22)"><path fill="url(#wps{4ccf067c-abbe-48da-996d-fe829f027622}_solid@Accent1_0.00@Accent1_0.00)" stroke="none" d="M 87 423.484 L 81 423.484 C 80.3086 423.484 79.6992 422.875 79.6992 422.188 C 79.6992 421.492 80.3086 420.887 81 420.887 L 87 420.887 C 87.6914 420.887 88.3008 421.492 88.3008 422.188 C 88.3008 422.875 87.6914 423.484 87 423.484 Z"/><path fill="url(#wps{4ccf067c-abbe-48da-996d-fe829f027622}_solid@Accent1_0.00@Accent1_0.00)" stroke="none" d="M 57 423.484 L 51 423.484 C 50.3086 423.484 49.6992 422.875 49.6992 422.188 C 49.6992 421.492 50.3086 420.887 51 420.887 L 57 420.887 C 57.6914 420.887 58.3008 421.492 58.3008 422.188 C 58.3008 422.875 57.6914 423.484 57 423.484 Z"/><path fill="url(#wps{4ccf067c-abbe-48da-996d-fe829f027622}_solid@Accent1_0.00@Accent1_0.00)" stroke="none" d="M 55.3008 412.387 L 40.6992 412.387 C 40.0117 412.387 39.4492 411.824 39.4492 411.137 C 39.4492 410.445 40.0117 409.887 40.6992 409.887 L 55.3008 409.887 C 55.9883 409.887 56.5508 410.445 56.5508 411.137 C 56.5508 411.824 55.9883 412.387 55.3008 412.387 Z"/><path fill="url(#wps{4ccf067c-abbe-48da-996d-fe829f027622}_solid@Accent1_0.00@Accent1_0.00)" stroke="none" d="M 46.75 416.637 L 46.75 409.137 C 46.75 408.445 47.3125 407.887 48 407.887 C 48.6875 407.887 49.25 408.445 49.25 409.137 L 49.25 416.637 C 49.25 417.324 46.75 417.324 46.75 416.637 Z"/><path fill="url(#wps{4ccf067c-abbe-48da-996d-fe829f027622}_solid@Accent1_0.00@Accent1_0.00)" stroke="none" d="M 97.3008 412.387 L 82.6992 412.387 C 82.0117 412.387 81.4492 411.824 81.4492 411.137 C 81.4492 410.445 82.0117 409.887 82.6992 409.887 L 97.3008 409.887 C 97.9883 409.887 98.5508 410.445 98.5508 411.137 C 98.5508 411.824 97.9883 412.387 97.3008 412.387 Z"/><path fill="url(#wps{4ccf067c-abbe-48da-996d-fe829f027622}_solid@Accent1_0.00@Accent1_0.00)" stroke="none" d="M 88.75 416.637 L 88.75 409.137 C 88.75 408.445 89.3125 407.887 90 407.887 C 90.6875 407.887 91.25 408.445 91.25 409.137 L 91.25 416.637 C 91.25 417.324 88.75 417.324 88.75 416.637 Z"/><path fill="url(#wps{4ccf067c-abbe-48da-996d-fe829f027622}_solid@Accent1_0.00@Accent1_0.00)" stroke="none" d="M 69 444.117 C 66.2461 444.117 63.6602 443.047 61.7188 441.105 C 61.2266 440.613 61.2266 439.754 61.7188 439.266 C 62.207 438.777 63.0664 438.777 63.5547 439.266 C 66.5586 442.27 71.4453 442.27 74.4453 439.266 C 74.9336 438.777 75.793 438.777 76.2813 439.266 C 76.7734 439.754 76.7734 440.613 76.2813 441.105 C 74.3398 443.047 71.7539 444.117 69 444.117 Z"/><path fill="url(#wps{4ccf067c-abbe-48da-996d-fe829f027622}_solid@Accent1_0.00@Accent1_0.00)" stroke="none" d="M 69 450.113 C 64.9102 450.113 61.0664 448.523 58.1797 445.641 C 57.6953 445.152 57.6953 444.289 58.1797 443.805 C 58.668 443.313 59.5313 443.313 60.0195 443.805 C 64.9727 448.754 73.0313 448.754 77.9805 443.805 C 78.4688 443.313 79.332 443.313 79.8203 443.805 C 80.3047 444.289 80.3047 445.152 79.8203 445.641 C 76.9336 448.523 73.0898 450.113 69 450.113 Z"/><path fill="url(#wps{4ccf067c-abbe-48da-996d-fe829f027622}_solid@Accent1_0.00@Accent1_0.00)" stroke="none" d="M 77 417.188 L 61 417.188 C 58.2422 417.188 56 419.43 56 422.188 C 56 429.355 61.832 435.188 69 435.188 C 76.168 435.188 82 429.355 82 422.188 C 82 419.43 79.7578 417.188 77 417.188 Z"/><path fill="url(#wps{4ccf067c-abbe-48da-996d-fe829f027622}_solid@Accent1_0.00@Accent1_0.00)" stroke="none" d="M 69 435.188 C 68.3203 435.188 67.6523 435.117 67 435.016 C 73.2188 434.047 78 428.672 78 422.188 C 78 419.43 75.7578 417.188 73 417.188 L 77 417.188 C 79.7578 417.188 82 419.43 82 422.188 C 82 422.625 81.9766 423.059 81.9336 423.484 C 81.2813 430.043 75.7305 435.188 69 435.188 Z"/><path fill="url(#wps{4ccf067c-abbe-48da-996d-fe829f027622}_solid@Accent1_0.00@Accent1_0.00)" stroke="none" d="M 69 421.188 C 66.2422 421.188 64 423.43 64 426.188 C 64 428.941 66.2422 431.188 69 431.188 C 71.7578 431.188 74 428.941 74 426.188 C 74 423.43 71.7578 421.188 69 421.188 Z"/><path fill="url(#wps{4ccf067c-abbe-48da-996d-fe829f027622}_solid@Accent1_0.00@Accent1_0.00)" stroke="none" d="M 69 424.188 C 67.8984 424.188 67 425.082 67 426.188 C 67 427.289 67.8984 428.188 69 428.188 C 70.1016 428.188 71 427.289 71 426.188 C 71 425.082 70.1016 424.188 69 424.188 Z"/><path fill="url(#wps{4ccf067c-abbe-48da-996d-fe829f027622}_solid@Accent1_0.00@Accent1_0.00)" stroke="none" d="M 48 416.188 C 45.793 416.188 44 417.98 44 420.188 L 44 424.184 C 44 426.391 45.793 428.184 48 428.184 C 50.207 428.184 52 426.391 52 424.184 L 52 420.188 C 52 417.98 50.207 416.188 48 416.188 Z"/><path fill="url(#wps{4ccf067c-abbe-48da-996d-fe829f027622}_solid@Accent1_0.00@Accent1_0.00)" stroke="none" d="M 90 416.188 C 87.793 416.188 86 417.98 86 420.188 L 86 424.184 C 86 426.391 87.793 428.184 90 428.184 C 92.207 428.184 94 426.391 94 424.184 L 94 420.188 C 94 417.98 92.207 416.188 90 416.188 Z"/><path fill="url(#wps{4ccf067c-abbe-48da-996d-fe829f027622}_solid@Accent1_0.00@Accent1_0.00)" stroke="none" d="M 90 428.184 C 89.9961 428.184 89.9922 428.184 89.9883 428.184 C 89.9922 428.184 89.9961 428.184 90 428.184 C 92.207 428.184 94 426.391 94 424.184 L 94 420.188 L 94 424.184 C 94 426.391 92.207 428.184 90 428.184 Z"/><path fill="url(#wps{4ccf067c-abbe-48da-996d-fe829f027622}_solid@Accent1_0.00@Accent1_0.00)" stroke="none" d="M 90 428.184 C 89.9961 428.184 89.9922 428.184 89.9883 428.184 C 89.4609 428.184 88.9609 428.074 88.5 427.887 C 89.9648 427.293 91 425.859 91 424.184 L 91 420.188 C 91 418.512 89.9648 417.078 88.5 416.484 C 88.9609 416.293 89.4609 416.188 89.9883 416.188 C 89.9922 416.188 89.9961 416.188 90 416.188 C 92.207 416.188 94 417.98 94 420.188 L 94 424.184 C 94 426.391 92.207 428.184 90 428.184 Z"/><path fill="url(#wps{4ccf067c-abbe-48da-996d-fe829f027622}_solid@Accent1_0.00@Accent1_0.00)" stroke="none" d="M 48 428.184 C 47.9961 428.184 47.9922 428.184 47.9883 428.184 C 47.9922 428.184 47.9961 428.184 48 428.184 C 50.207 428.184 52 426.391 52 424.184 L 52 423.484 L 52 424.184 C 52 426.391 50.207 428.184 48 428.184 Z"/><path fill="url(#wps{4ccf067c-abbe-48da-996d-fe829f027622}_solid@Accent1_0.00@Accent1_0.00)" stroke="none" d="M 52 420.133 C 51.9766 418.387 50.832 416.906 49.25 416.387 C 50.832 416.906 51.9766 418.387 52 420.133 Z"/><path fill="url(#wps{4ccf067c-abbe-48da-996d-fe829f027622}_solid@Accent1_0.00@Accent1_0.00)" stroke="none" d="M 49.25 416.387 C 48.8555 416.258 48.4375 416.188 48 416.188 C 48.4375 416.188 48.8555 416.258 49.25 416.387 M 47.9883 416.188 C 47.9922 416.188 47.9961 416.188 48 416.188 C 47.9961 416.188 47.9922 416.188 47.9883 416.188"/><path fill="url(#wps{4ccf067c-abbe-48da-996d-fe829f027622}_solid@Accent1_0.00@Accent1_0.00)" stroke="none" d="M 48 428.184 C 47.9961 428.184 47.9922 428.184 47.9883 428.184 C 47.4609 428.184 46.9609 428.074 46.5 427.887 C 47.9648 427.293 49 425.859 49 424.184 L 49 420.188 C 49 418.512 47.9648 417.078 46.5 416.484 C 46.9609 416.293 47.4609 416.188 47.9883 416.188 C 47.9922 416.188 47.9961 416.188 48 416.188 C 48.4375 416.188 48.8555 416.258 49.25 416.387 C 50.832 416.906 51.9766 418.387 52 420.133 C 52 420.152 52 420.168 52 420.188 L 52 424.184 C 52 426.391 50.207 428.184 48 428.184 Z"/></g></svg>
